<svg xmlns="http://www.w3.org/2000/svg" xml:space="preserve" width="800" height="800" viewBox="0 0 512 512"><path d="M504 436c4 0 8-4 8-8V182c0-4-4-8-8-8h-33a8 8 0 1 0 0 17h25v27h-49v-71h21c5 0 9-4 9-8V95a8 8 0 1 0-17 0v3h-38L260 1h-8L90 98H52v-3a8 8 0 1 0-17 0v44c0 4 4 8 9 8h21v71H16v-27h25a8 8 0 1 0 0-17H8c-4 0-8 4-8 8v246a8 8 0 1 0 16 0V234h49v175H44c-5 0-9 3-9 8v35H8c-4 0-8 4-8 8v44c0 4 4 8 8 8h496c4 0 8-4 8-8v-44c0-4-4-8-8-8h-27v-35c0-5-4-8-9-8h-21V234h49v194c0 4 3 8 8 8zM256 18l135 80h-31L260 39h-8L152 98h-31l135-80zm72 80H184l72-42 72 42zm168 370v28H16v-28h480zm-36-43v27H52v-27h408zM82 174v-27h348v27H82zm348 17v174h-16V191h16zm-94 27v-27h62v27h-62zm62 16v131h-62V234h62zm-78-43v174h-17V191h17zm-64 136c-5 0-8 3-8 8v30h-23V234h62v131h-23v-30c0-5-3-8-8-8zm-31-109v-27h62v27h-62zm-16-27v174h-17V191h17zm-95 27v-27h62v27h-62zm62 16v131h-62V234h62zm-78-43v174H82V191h16zm332 190v28H82v-28h348zM52 131v-17h408v17H52z"/></svg>