<svg xmlns="http://www.w3.org/2000/svg" xml:space="preserve" width="800" height="800" viewBox="0 0 512 512"><path d="M423 0H89c-6 0-10 5-10 10v492c0 5 4 10 10 10h334c6 0 10-5 10-10V10c0-5-4-10-10-10zM281 492h-50v-88h50v88zm132 0H301v-98c0-6-4-10-10-10h-70c-6 0-10 4-10 10v98H99V20h314v472z"/><path d="M236 345h-9v-53c0-6-4-11-10-11h-70c-6 0-11 5-11 11v53h-8a10 10 0 0 0 0 20h108a10 10 0 1 0 0-20zm-64 0h-15v-43h15v43zm35 0h-15v-43h15v43zM384 345h-8v-53c0-6-5-11-11-11h-70c-6 0-10 5-10 11v53h-9a10 10 0 0 0 0 20h108a10 10 0 1 0 0-20zm-64 0h-15v-43h15v43zm35 0h-15v-43h15v43zM236 229h-9v-53c0-6-4-10-10-10h-70c-6 0-11 4-11 10v53h-8a10 10 0 0 0 0 20h108a10 10 0 1 0 0-20zm-64 0h-15v-43h15v43zm35 0h-15v-43h15v43zM384 229h-8v-53c0-6-5-10-11-10h-70c-6 0-10 4-10 10v53h-9a10 10 0 0 0 0 20h108a10 10 0 1 0 0-20zm-64 0h-15v-43h15v43zm35 0h-15v-43h15v43zM236 117h-9V63c0-5-4-10-10-10h-70c-6 0-11 5-11 10v54h-8a10 10 0 0 0 0 20h108a10 10 0 1 0 0-20zm-64 0h-15V74h15v43zm35 0h-15V74h15v43zM384 117h-8V63c0-5-5-10-11-10h-70c-6 0-10 5-10 10v54h-9a10 10 0 0 0 0 20h108a10 10 0 1 0 0-20zm-64 0h-15V74h15v43zm35 0h-15V74h15v43zM247 412c-6 0-11 4-11 10v3a10 10 0 0 0 21 0v-3c0-6-5-10-10-10zM247 441c-6 0-11 5-11 10v25a10 10 0 0 0 21 0v-25c0-5-5-10-10-10z"/></svg>